<?xml version="1.0" encoding="utf-8"?>
<!-- Generator: Adobe Illustrator 28.1.0, SVG Export Plug-In . SVG Version: 6.00 Build 0)  -->
<svg version="1.1" xmlns="http://www.w3.org/2000/svg" xmlns:xlink="http://www.w3.org/1999/xlink" x="0px" y="0px"
	 viewBox="0 0 32 32" style="enable-background:new 0 0 32 32;" xml:space="preserve">
<style type="text/css">
	.st0{fill:#FFFFFF;}
</style>
<g id="Layer_2">
	<path d="M0,15.96c-0.01,2.02,0.37,4.01,1.11,5.89c0.8,2.03,2.01,3.88,3.55,5.43c1.54,1.55,3.38,2.77,5.41,3.58
		c1.87,0.75,3.87,1.13,5.89,1.14c2.02,0.01,4.01-0.37,5.89-1.11c2.03-0.8,3.88-2.01,5.43-3.55c1.55-1.54,2.77-3.38,3.58-5.41
		c0.75-1.87,1.13-3.87,1.14-5.89c0.01-2.02-0.37-4.01-1.11-5.89c-0.8-2.03-2.01-3.88-3.55-5.43c-1.54-1.55-3.38-2.77-5.41-3.58
		C20.06,0.39,18.06,0.01,16.04,0c-2.02-0.01-4.01,0.37-5.89,1.11c-2.03,0.8-3.88,2.01-5.43,3.55C3.17,6.2,1.95,8.04,1.14,10.07
		C0.39,11.94,0.01,13.94,0,15.96z"/>
</g>
<g id="Layer_01">
	<path class="st0" d="M29.12,25.16c-0.99,0-1.97,0-2.96,0c-0.15,0-0.3-0.01-0.45-0.03c-0.16-0.02-0.31-0.04-0.46-0.08
		c-0.13-0.03-0.25-0.07-0.36-0.12c-0.11-0.05-0.21-0.1-0.3-0.16c-0.1-0.07-0.19-0.14-0.26-0.22c-0.04-0.04-0.08-0.09-0.12-0.14
		c-0.04-0.05-0.08-0.11-0.11-0.16c-0.09-0.15-0.16-0.3-0.21-0.46c-0.05-0.17-0.09-0.34-0.11-0.51c-0.03-0.2-0.04-0.4-0.04-0.6
		c0-5.91,0-11.81,0-17.72c-0.82,0-1.64,0-2.47,0c0,5.91,0,11.81,0,17.72c0,0.25,0.01,0.5,0.05,0.75c0.03,0.23,0.08,0.46,0.16,0.69
		c0.08,0.24,0.19,0.48,0.33,0.71c0.06,0.1,0.13,0.19,0.2,0.29c0,0,0,0,0,0c-0.03,0-0.05,0-0.08-0.01c-0.16-0.02-0.31-0.04-0.46-0.08
		c-0.13-0.03-0.25-0.07-0.36-0.12c-0.11-0.05-0.21-0.1-0.3-0.16c-0.1-0.07-0.19-0.14-0.26-0.22c-0.04-0.04-0.08-0.09-0.12-0.14
		c-0.04-0.05-0.08-0.11-0.11-0.16c-0.09-0.15-0.16-0.3-0.21-0.46c-0.05-0.17-0.09-0.34-0.11-0.51c-0.03-0.2-0.04-0.4-0.04-0.6
		c0-5.91,0-11.81,0-17.72c-0.82,0-1.64,0-2.47,0c0,5.99,0,11.98,0,17.98c0,0.25,0.01,0.5,0.05,0.75c0.03,0.23,0.08,0.46,0.16,0.69
		c0.08,0.24,0.19,0.48,0.33,0.71c0.06,0.1,0.13,0.19,0.2,0.29c0.07,0.09,0.15,0.18,0.23,0.27c0.17,0.17,0.36,0.34,0.58,0.48
		c0.22,0.15,0.46,0.28,0.73,0.39c0.13,0.06,0.27,0.11,0.41,0.15c0.14,0.05,0.29,0.09,0.43,0.12c0.3,0.07,0.61,0.12,0.93,0.16
		c0.32,0.03,0.65,0.05,0.98,0.05c1.7,0,3.4,0,5.09,0C28.15,26.44,28.66,25.82,29.12,25.16z"/>
	<polygon class="st0" points="12.66,14.66 16.57,14.66 16.57,16.51 12.66,16.51 12.66,27.02 10.19,27.02 10.19,16.51 8.82,16.51 
		8.82,27.02 6.35,27.02 6.35,4.98 8.82,4.98 8.82,14.66 10.19,14.66 10.19,4.98 12.66,4.98 	"/>
</g>
<g id="Layer_3">
</g>
</svg>
