<?xml version="1.0" encoding="utf-8"?>
<!-- Generator: Adobe Illustrator 28.1.0, SVG Export Plug-In . SVG Version: 6.00 Build 0)  -->
<svg version="1.1" xmlns="http://www.w3.org/2000/svg" xmlns:xlink="http://www.w3.org/1999/xlink" x="0px" y="0px"
	 viewBox="0 0 32 32" style="enable-background:new 0 0 32 32;" xml:space="preserve">
<style type="text/css">
	.st0{fill:#FFFFFF;}
	.st1{fill:#231F20;}
</style>
<g id="Layer_01">
</g>
<g id="Layer_2">
	<g>
		<path class="st0" d="M16,0.04c-4.24,0-8.3,1.68-11.31,4.67C1.69,7.7,0,11.76,0,16c0,4.24,1.69,8.3,4.69,11.29
			c3,2.99,7.07,4.67,11.31,4.67c3.27,0,6.46-1,9.14-2.86c-1.61,0-3.22,0-4.83,0c-0.17,0-0.34-0.01-0.5-0.04
			c-0.16-0.03-0.32-0.07-0.47-0.12c-0.08-0.03-0.15-0.06-0.22-0.1c-0.07-0.04-0.14-0.08-0.21-0.12c-0.14-0.09-0.26-0.19-0.37-0.31
			c-0.11-0.12-0.21-0.25-0.3-0.38c-0.04-0.07-0.08-0.14-0.12-0.21c-0.04-0.07-0.07-0.15-0.1-0.23c-0.07-0.18-0.13-0.37-0.17-0.57
			c-0.04-0.18-0.06-0.36-0.08-0.55c-0.02-0.2-0.03-0.4-0.03-0.59c0-7.76,0-15.52,0-23.28c0.42,0,0.84,0,1.27,0
			c0,7.76,0,15.52,0,23.28c0,0.16,0.01,0.32,0.02,0.48c0.01,0.13,0.03,0.27,0.06,0.4c0.03,0.12,0.06,0.25,0.11,0.36
			c0.02,0.04,0.04,0.09,0.06,0.13c0.02,0.04,0.04,0.07,0.06,0.11c0.04,0.06,0.08,0.12,0.13,0.17c0.05,0.05,0.1,0.09,0.15,0.13
			c0.06,0.04,0.12,0.07,0.19,0.09c0.08,0.03,0.16,0.05,0.24,0.06c0.01,0,0.03,0,0.04,0.01c0,0,0,0,0,0
			c-0.04-0.07-0.07-0.15-0.1-0.23c-0.07-0.18-0.13-0.37-0.17-0.57c-0.04-0.18-0.06-0.36-0.08-0.55c-0.02-0.2-0.03-0.4-0.03-0.59
			c0-7.76,0-15.52,0-23.28c0.42,0,0.84,0,1.27,0c0,7.76,0,15.52,0,23.28c0,0.16,0.01,0.32,0.02,0.48c0.01,0.13,0.03,0.27,0.06,0.4
			c0.03,0.12,0.06,0.25,0.11,0.36c0.02,0.04,0.04,0.09,0.06,0.13c0.02,0.04,0.04,0.07,0.06,0.11c0.04,0.06,0.08,0.12,0.13,0.17
			c0.05,0.05,0.1,0.09,0.15,0.13c0.06,0.04,0.12,0.07,0.19,0.09c0.08,0.03,0.16,0.05,0.24,0.06c0.08,0.01,0.15,0.02,0.23,0.02
			c1.52,0,3.04,0,4.56,0C30.09,24.81,32,20.51,32,16c0-4.24-1.69-8.3-4.69-11.29C24.3,1.72,20.24,0.04,16,0.04z"/>
		<polygon class="st1" points="12.92,15.09 15.97,15.09 15.97,16.35 12.92,16.35 12.92,29.1 11.66,29.1 11.66,16.35 10.95,16.35 
			10.95,29.1 9.68,29.1 9.68,2.6 10.95,2.6 10.95,15.09 11.66,15.09 11.66,2.6 12.92,2.6 		"/>
		<path class="st1" d="M25.14,29.09c-1.61,0-3.22,0-4.83,0c-0.17,0-0.34-0.01-0.5-0.04c-0.16-0.03-0.32-0.07-0.47-0.12
			c-0.08-0.03-0.15-0.06-0.22-0.1c-0.07-0.04-0.14-0.08-0.21-0.12c-0.14-0.09-0.26-0.19-0.37-0.31c-0.11-0.12-0.21-0.25-0.3-0.38
			c-0.04-0.07-0.08-0.14-0.12-0.21c-0.04-0.07-0.07-0.15-0.1-0.23c-0.07-0.18-0.13-0.37-0.17-0.57c-0.04-0.18-0.06-0.36-0.08-0.55
			c-0.02-0.2-0.03-0.4-0.03-0.59c0-7.76,0-15.52,0-23.28c0.42,0,0.84,0,1.27,0c0,7.76,0,15.52,0,23.28c0,0.16,0.01,0.32,0.02,0.48
			c0.01,0.13,0.03,0.27,0.06,0.4c0.03,0.12,0.06,0.25,0.11,0.36c0.02,0.04,0.04,0.09,0.06,0.13c0.02,0.04,0.04,0.07,0.06,0.11
			c0.04,0.06,0.08,0.12,0.13,0.17c0.05,0.05,0.1,0.09,0.15,0.13c0.06,0.04,0.12,0.07,0.19,0.09c0.08,0.03,0.16,0.05,0.24,0.06
			c0.01,0,0.03,0,0.04,0.01c0,0,0,0,0,0c-0.04-0.07-0.07-0.15-0.1-0.23c-0.07-0.18-0.13-0.37-0.17-0.57
			c-0.04-0.18-0.06-0.36-0.08-0.55c-0.02-0.2-0.03-0.4-0.03-0.59c0-7.76,0-15.52,0-23.28c0.42,0,0.84,0,1.27,0
			c0,7.76,0,15.52,0,23.28c0,0.16,0.01,0.32,0.02,0.48c0.01,0.13,0.03,0.27,0.06,0.4c0.03,0.12,0.06,0.25,0.11,0.36
			c0.02,0.04,0.04,0.09,0.06,0.13c0.02,0.04,0.04,0.07,0.06,0.11c0.04,0.06,0.08,0.12,0.13,0.17c0.05,0.05,0.1,0.09,0.15,0.13
			c0.06,0.04,0.12,0.07,0.19,0.09c0.08,0.03,0.16,0.05,0.24,0.06c0.1,0.02,0.2,0.02,0.3,0.02c-0.02,0-0.05,0-0.07,0
			c1.52,0,3.04,0,4.56,0C26.23,28.28,25.7,28.7,25.14,29.09z"/>
	</g>
</g>
<g id="Layer_3">
</g>
</svg>
